# xmcd
#
# Track frame offsets:
#	150
#	19003
#	37821
#	58806
#	79151
#	99849
#	114869
#	131786
#	148075
#	169327
#	184093
#	200924
#	219118
#	233524
#
# Disc length: 3296 seconds
#
# Revision: 1
# Processed by: cddbd v1.5.2PL0 Copyright (c) Steve Scherf et al.
# Submitted via: EasyCDDAExtractor 15.3.0.1
#
DISCID=ba0cde0e
DTITLE=Alejandra Guzman - Sexy
DYEAR=2013
DGENRE=Latin
TTITLE0=Ven
TTITLE1=Sienteme A Tu Lado
TTITLE2=Me Perdi En Tu Cuerpo
TTITLE3=Loca
TTITLE4=Quema Despacio
TTITLE5=De Verdad
TTITLE6=Matame
TTITLE7=Quiero Estar Contigo
TTITLE8=Hacer El Amor Con Otro
TTITLE9=Caramelo
TTITLE10=Vuelvo A Besar
TTITLE11=Morir De Amor
TTITLE12=Lipstick
TTITLE13=Supersexitada
EXTD=
EXTT0=
EXTT1=
EXTT2=
EXTT3=
EXTT4=
EXTT5=
EXTT6=
EXTT7=
EXTT8=
EXTT9=
EXTT10=
EXTT11=
EXTT12=
EXTT13=
PLAYORDER=
